<svg id="End" xmlns="http://www.w3.org/2000/svg" width="120" height="120" viewBox="0 0 120 120">
  <circle id="Ellipse_261" data-name="Ellipse 261" cx="60" cy="60" r="60" fill="#c33357"/>
  <g id="old-handphone" transform="translate(20.869 24.863)">
    <path id="Path_3733" data-name="Path 3733" d="M22.338,23.555,5.909,7.117Q9.09,3.936,12.271.747a2.523,2.523,0,0,1,3.554-.03l12.8,12.812a2.533,2.533,0,0,1-.013,3.575l-2.8,2.8-2.61,2.61A7.186,7.186,0,0,0,22.338,23.555ZM35.854,50.33c-2.69-2.315-5.27-4.772-7.774-7.272-2.5-2.517-4.949-5.089-7.268-7.791a8.094,8.094,0,0,1-1.277-8.04L2.671,10.359C-1.254,14.394-.752,24.4,3.548,33.188a63.285,63.285,0,0,0,6.716,10.5A94.086,94.086,0,0,0,18.3,52.86a89.624,89.624,0,0,0,9.153,8.065,63.3,63.3,0,0,0,10.481,6.7c8.8,4.3,18.811,4.768,22.842.839L43.907,51.6A8.128,8.128,0,0,1,35.854,50.33ZM70.4,55.309l-12.8-12.8a2.549,2.549,0,0,0-3.575.013h-.008l-2.812,2.808-2.593,2.605a7.868,7.868,0,0,1-1.041.864L64,65.229q3.187-3.194,6.374-6.366A2.5,2.5,0,0,0,70.4,55.309Z" transform="translate(0 0)" fill="#fff"/>
  </g>
  <g id="Group_1775" data-name="Group 1775" transform="translate(13 -17)">
    <line id="Line_23" data-name="Line 23" x2="25" y2="25" transform="translate(47.5 47.5)" fill="none" stroke="#fff" stroke-linecap="round" stroke-width="6"/>
    <line id="Line_24" data-name="Line 24" x1="25" y2="25" transform="translate(47.5 47.5)" fill="none" stroke="#fff" stroke-linecap="round" stroke-width="6"/>
  </g>
</svg>
