<svg xmlns="http://www.w3.org/2000/svg" width="31.597" height="41.076" viewBox="0 0 31.597 41.076">
  <g id="clipboards_1_" data-name="clipboards (1)" transform="translate(0 0)">
    <g id="Group_308" data-name="Group 308" transform="translate(0)">
      <g id="Group_307" data-name="Group 307">
        <path id="Path_3638" data-name="Path 3638" d="M76.437,6.319H72.051a4.727,4.727,0,0,0-2.2-1.4,2.174,2.174,0,0,1-1.5-1.5,4.741,4.741,0,0,0-9.111,0,2.177,2.177,0,0,1-1.5,1.5,4.724,4.724,0,0,0-2.2,1.4H51.16A3.16,3.16,0,0,0,48,9.479V37.916a3.16,3.16,0,0,0,3.16,3.16H76.437a3.16,3.16,0,0,0,3.16-3.16V9.479A3.16,3.16,0,0,0,76.437,6.319ZM63.819,3.16a1.58,1.58,0,1,1-1.58,1.58A1.58,1.58,0,0,1,63.819,3.16ZM76.437,37.916H51.16V9.479h3.16v3.16H73.278V9.479h3.16Z" transform="translate(-48)" fill="#fff"/>
      </g>
    </g>
    <g id="Group_310" data-name="Group 310" transform="translate(7.122 18.625)">
      <g id="Group_309" data-name="Group 309">
        <path id="Path_3639" data-name="Path 3639" d="M134.81,188.627l-8.785,8.785-3.666-3.589-2.234,2.236,5.9,5.821,11.019-11.019Z" transform="translate(-120.124 -188.627)" fill="#fff"/>
      </g>
    </g>
  </g>
</svg>
