<?xml version="1.0" encoding="utf-8"?>
<!-- Generator: Adobe Illustrator 23.0.2, SVG Export Plug-In . SVG Version: 6.00 Build 0)  -->
<svg version="1.1" xmlns="http://www.w3.org/2000/svg" xmlns:xlink="http://www.w3.org/1999/xlink" x="0px" y="0px"
	 viewBox="0 0 320 237" style="enable-background:new 0 0 320 237;" xml:space="preserve">
<style type="text/css">
	.st0{display:none;}
	.st1{display:inline;fill:#FFFFFF;}
	.st2{fill:none;stroke:#E6B000;stroke-width:4;stroke-miterlimit:10;}
</style>
<g id="BACKGROUND" class="st0">
	<rect id="XMLID_28_" y="-93" class="st1" width="500" height="500"/>
</g>
<g id="OBJEKTS">
	<g>
		<defs>
			<rect id="XMLID_2_" y="-93" width="500" height="500"/>
		</defs>
		<clipPath id="XMLID_3_">
			<use xlink:href="#XMLID_2_"  style="overflow:visible;"/>
		</clipPath>
	</g>
	<g>
		<g>
			<g>
				<g>
					<g>
						<path d="M32.7,171.4c0-1-0.8-1.8-1.8-1.8H28c-1,0-1.8,0.9-1.8,1.8v33.7c0,1.1,0.9,1.8,1.8,1.8h2.8c1,0,1.8-0.8,1.8-1.8v-7h4.3
							v7c0,3.4-2.8,6.2-6.2,6.2H28c-3.4,0-6.2-2.8-6.2-6.2v-33.7c0-3.4,2.8-6.2,6.2-6.2h2.8c3.4,0,6.2,2.8,6.2,6.2v5.1h-4.3V171.4z"
							/>
						<path d="M62.1,205.1c0,3.4-2.8,6.2-6.2,6.2h-4.3c-3.4,0-6.2-2.8-6.2-6.2v-33.7c0-3.4,2.8-6.2,6.2-6.2h4.3
							c3.4,0,6.2,2.8,6.2,6.2V205.1z M55.9,169.5h-4.3c-1,0-1.8,0.9-1.8,1.8v33.7c0,1.1,0.9,1.8,1.8,1.8h4.3c1,0,1.8-0.8,1.8-1.8
							v-33.7C57.7,170.4,56.9,169.5,55.9,169.5z"/>
						<path d="M85.9,202.5l-1.3-16.4v-20.9H89v46.1h-5.9l-9.2-38.1l-0.5,0.1l1.3,17.1v20.9h-4.3v-46.1h5.9l9.1,37.5L85.9,202.5z"/>
						<path d="M101.6,205.1c0,1.1,0.9,1.8,1.8,1.8h3c1,0,1.8-0.8,1.8-1.8v-7.8c0-1.6-0.3-3.2-1.4-4.4l-7.5-9.2c-1.6-2-2.2-4.4-2.2-7
							v-5.3c0-3.4,2.8-6.2,6.2-6.2h3c3.4,0,6.2,2.8,6.2,6.2v5.1h-4.3v-5.1c0-1-0.9-1.8-1.8-1.8h-3c-1,0-1.8,0.9-1.8,1.8v5.3
							c0,1.6,0.3,3.1,1.4,4.4l7.4,9.2c1.6,2,2.2,4.4,2.2,7v7.8c0,3.4-2.8,6.2-6.2,6.2h-3c-3.4,0-6.2-2.8-6.2-6.2v-7h4.3V205.1z"/>
						<path d="M129.7,169.5v41.8h-4.3v-41.8H120v-4.3h15v4.3H129.7z"/>
						<path d="M152.1,165.2c3.4,0,6.2,2.8,6.2,6.2v9.1c0,2.8-1.1,4.7-3.9,6c2.6,0.6,3.9,2.6,3.9,4.9v19.9H154v-19.6
							c0-2.2-1.1-3.3-3.3-3.3h-4v22.9h-4.3v-46.1H152.1z M150,184.4c2.7,0,4-1.4,4-4.2v-8.8c0-1-0.9-1.8-1.8-1.8h-5.5v14.9H150z"/>
						<path d="M171,205.1c0,1.1,0.8,1.8,1.8,1.8h4.4c1,0,1.8-0.8,1.8-1.8v-39.9h4.3v39.9c0,3.4-2.8,6.2-6.2,6.2h-4.4
							c-3.4,0-6.2-2.8-6.2-6.2v-39.9h4.3V205.1z"/>
						<path d="M202.6,171.4c0-1-0.8-1.8-1.8-1.8h-2.8c-1,0-1.8,0.9-1.8,1.8v33.7c0,1.1,0.9,1.8,1.8,1.8h2.8c1,0,1.8-0.8,1.8-1.8v-7
							h4.3v7c0,3.4-2.8,6.2-6.2,6.2h-2.8c-3.4,0-6.2-2.8-6.2-6.2v-33.7c0-3.4,2.8-6.2,6.2-6.2h2.8c3.4,0,6.2,2.8,6.2,6.2v5.1h-4.3
							V171.4z"/>
						<path d="M223.9,169.5v41.8h-4.3v-41.8h-5.3v-4.3h15v4.3H223.9z"/>
						<path d="M244.6,169.5v37.4h3.8v4.3h-11.9v-4.3h3.8v-37.4h-3.8v-4.3h11.9v4.3H244.6z"/>
						<path d="M273.4,205.1c0,3.4-2.8,6.2-6.2,6.2h-4.3c-3.4,0-6.2-2.8-6.2-6.2v-33.7c0-3.4,2.8-6.2,6.2-6.2h4.3
							c3.4,0,6.2,2.8,6.2,6.2V205.1z M267.2,169.5h-4.3c-1,0-1.8,0.9-1.8,1.8v33.7c0,1.1,0.9,1.8,1.8,1.8h4.3c1,0,1.8-0.8,1.8-1.8
							v-33.7C269.1,170.4,268.2,169.5,267.2,169.5z"/>
						<path d="M297.2,202.5l-1.3-16.4v-20.9h4.3v46.1h-5.9l-9.2-38.1l-0.5,0.1l1.3,17.1v20.9h-4.3v-46.1h5.9l9.1,37.5L297.2,202.5z"
							/>
					</g>
					<g>
						<path d="M33.8,125.3c0,2.5,1.9,4.4,4.4,4.4h10.6c2.4,0,4.4-1.9,4.4-4.4V29.4h10.4v95.9c0,8.2-6.8,14.9-14.9,14.9H38.2
							c-8.2,0-14.9-6.7-14.9-14.9V29.4h10.4V125.3z"/>
						<path d="M120.9,119.1l-3-39.4V29.4h10.4v110.8h-14.1l-22-91.7l-1.1,0.3l3,41v50.3H83.7V29.4h14.2l21.8,90.1L120.9,119.1z"/>
						<path d="M172.9,29.4c8.1,0,14.7,6.6,14.7,14.9v81.1c0,8.2-6.7,14.9-14.7,14.9h-24.7V29.4H172.9z M158.7,129.7h14.2
							c2.4,0,4.3-1.9,4.3-4.4V44.2c0-2.4-1.9-4.4-4.3-4.4h-14.2V129.7z"/>
						<path d="M218.1,39.8v35.8h17.3v9.7h-17.3v44.5h19.6v10.4h-30.1V29.4h30.2v10.4H218.1z"/>
						<path d="M279.8,29.4c8.1,0,14.9,6.8,14.9,14.9v21.8c0,6.6-2.7,11.2-9.3,14.4c6.3,1.4,9.3,6.2,9.3,11.9v47.8h-10.4v-47
							c0-5.4-2.7-7.9-7.9-7.9h-9.7v54.9h-10.4V29.4H279.8z M274.7,75.6c6.5,0,9.5-3.5,9.5-10.1V44.2c0-2.4-2.1-4.4-4.4-4.4h-13.1
							v35.8H274.7z"/>
					</g>
				</g>
				<rect x="3.3" y="4.2" class="st2" width="314.7" height="228.7"/>
			</g>
		</g>
	</g>
</g>
<g id="DESIGNED_BY_FREEPIK" class="st0">
</g>
</svg>
