<svg xmlns="http://www.w3.org/2000/svg" width="45.236" height="36.237" viewBox="0 0 45.236 36.237">
  <g id="Group_334" data-name="Group 334" transform="translate(-3699 -4003)">
    <path id="Subtraction_2" data-name="Subtraction 2" d="M34.519,29.788H34.44a3.509,3.509,0,0,1-.27-.744,3.5,3.5,0,0,1,.837-3.188c-.044.3-.122,1.006-.192,1.649A22.522,22.522,0,0,1,34.519,29.788Zm-5.226,0H3.493a1.861,1.861,0,0,1-.511-.07,1.8,1.8,0,0,1-.448-.194,1.861,1.861,0,0,1-.847-2.06,1.905,1.905,0,0,1,.2-.476L7.5,17.357a4.967,4.967,0,0,1,4.289-2.463H42.818a1.9,1.9,0,0,1,.511.069,1.818,1.818,0,0,1,.448.194,1.886,1.886,0,0,1,.9,1.576,1.8,1.8,0,0,1-.058.484,1.877,1.877,0,0,1-.2.477l-2.1,3.6a8.28,8.28,0,0,0-1.949-.988V18.162a.527.527,0,0,0-.411-.512,10.982,10.982,0,0,0-4.776,0,.527.527,0,0,0-.411.512v2.152a8.481,8.481,0,0,0-2.66,1.535l-1.858-1.076a.528.528,0,0,0-.264-.071.521.521,0,0,0-.384.171,10.843,10.843,0,0,0-2.393,4.138.523.523,0,0,0,.241.613L29.319,26.7a8.424,8.424,0,0,0,0,3.071l-.027.016Zm10.342-3.882h0l-.7-.9a3.489,3.489,0,0,1,.905.557l-.2.343Zm-4.467-.212,0,0A3.493,3.493,0,0,1,38.921,25c-.258.062-.488.119-.741.183l-.006,0a14.15,14.15,0,0,1-3,.508ZM0,25.292V3.723A3.72,3.72,0,0,1,3.723,0H16.135L21.1,4.964H33.512a3.72,3.72,0,0,1,3.723,3.723v3.724H11.791a7.472,7.472,0,0,0-6.432,3.694L0,25.289ZM5,2.6A1.242,1.242,0,0,0,5,5.081h8.456a1.242,1.242,0,0,0,0-2.483Z" transform="translate(3699 4003)" fill="#fff"/>
    <path id="cog" d="M33.767,18.023l-1.374-.794a6.214,6.214,0,0,0,0-2.265l1.374-.794a.39.39,0,0,0,.177-.452,8.035,8.035,0,0,0-1.765-3.052.388.388,0,0,0-.477-.074l-1.374.794a6.089,6.089,0,0,0-1.961-1.132V8.67a.387.387,0,0,0-.3-.377,8.11,8.11,0,0,0-3.523,0,.387.387,0,0,0-.3.377v1.587a6.281,6.281,0,0,0-1.961,1.132L20.9,10.6a.383.383,0,0,0-.477.074,7.987,7.987,0,0,0-1.765,3.052.386.386,0,0,0,.177.452l1.374.794a6.214,6.214,0,0,0,0,2.265l-1.374.794a.39.39,0,0,0-.177.452,8.035,8.035,0,0,0,1.765,3.052.388.388,0,0,0,.477.074l1.374-.794a6.089,6.089,0,0,0,1.961,1.132V23.53a.387.387,0,0,0,.3.377,8.11,8.11,0,0,0,3.523,0,.387.387,0,0,0,.3-.377V21.942a6.281,6.281,0,0,0,1.961-1.132l1.374.794a.383.383,0,0,0,.477-.074,7.987,7.987,0,0,0,1.765-3.052A.4.4,0,0,0,33.767,18.023Zm-7.465.655A2.581,2.581,0,1,1,28.882,16.1,2.584,2.584,0,0,1,26.3,18.678Z" transform="translate(3710.273 4015.136)" fill="#fff"/>
  </g>
</svg>
