<svg xmlns="http://www.w3.org/2000/svg" width="42" height="42" viewBox="0 0 42 42">
  <path id="github" d="M14.048,41.818c0,.174-.195.313-.44.313-.279.026-.474-.113-.474-.313,0-.174.195-.313.44-.313C13.828,41.48,14.048,41.619,14.048,41.818Zm-2.633-.391c-.059.174.11.373.364.426a.393.393,0,0,0,.525-.174c.051-.174-.11-.373-.364-.452A.43.43,0,0,0,11.415,41.428Zm3.743-.148c-.246.061-.415.226-.39.426.025.174.246.287.5.226s.415-.226.39-.4S15.4,41.254,15.157,41.28ZM20.729,8C8.984,8,0,17.145,0,29.191A21.741,21.741,0,0,0,14.353,49.965c1.084.2,1.465-.486,1.465-1.051,0-.538-.025-3.509-.025-5.332,0,0-5.927,1.3-7.172-2.588,0,0-.965-2.527-2.354-3.179,0,0-1.939-1.363.135-1.337A4.452,4.452,0,0,1,9.67,38.718c1.854,3.352,4.962,2.388,6.173,1.815A4.875,4.875,0,0,1,17.2,37.606c-4.733-.538-9.509-1.242-9.509-9.6a6.669,6.669,0,0,1,2-5.115,8.4,8.4,0,0,1,.22-5.9c1.77-.565,5.843,2.345,5.843,2.345a19.523,19.523,0,0,1,10.635,0S30.458,16.424,32.228,17a8.4,8.4,0,0,1,.22,5.9,6.83,6.83,0,0,1,2.185,5.115c0,8.381-4.988,9.049-9.721,9.6a5.207,5.207,0,0,1,1.44,4.03c0,2.927-.025,6.548-.025,7.26,0,.565.39,1.251,1.465,1.051C36.259,47.064,42,38.822,42,29.191A21.017,21.017,0,0,0,20.729,8ZM8.231,37.954c-.11.087-.085.287.059.452.135.139.33.2.44.087.11-.087.085-.287-.059-.452C8.535,37.9,8.341,37.841,8.231,37.954Zm-.915-.7c-.059.113.025.252.195.339a.248.248,0,0,0,.364-.061c.059-.113-.025-.252-.195-.339C7.511,37.137,7.375,37.163,7.316,37.25Zm2.744,3.092c-.135.113-.085.373.11.538.195.2.44.226.55.087.11-.113.059-.373-.11-.538C10.424,40.229,10.17,40.2,10.06,40.342Zm-.965-1.277c-.135.087-.135.313,0,.512s.364.287.474.2a.4.4,0,0,0,0-.538c-.119-.2-.339-.287-.474-.174Z" transform="translate(0 -8)" fill="#fff"/>
</svg>
