<svg xmlns="http://www.w3.org/2000/svg" width="24.936" height="24.936" viewBox="0 0 24.936 24.936">
  <g id="hide" transform="translate(0.001 0)">
    <g id="Group_289" data-name="Group 289" transform="translate(0 0)">
      <g id="Group_288" data-name="Group 288" transform="translate(0 0)">
        <path id="Path_3601" data-name="Path 3601" d="M24.784,23.315,1.621.152a.52.52,0,0,0-.735,0L.152.887a.519.519,0,0,0,0,.735l4.3,4.3A13.351,13.351,0,0,0,.025,12.309a.522.522,0,0,0,0,.318,13.092,13.092,0,0,0,12.443,9.192A12.839,12.839,0,0,0,18.728,20.2l4.586,4.586a.52.52,0,0,0,.735,0l.734-.735A.519.519,0,0,0,24.784,23.315ZM12.468,19.741A7.263,7.263,0,0,1,6.649,8.119l2.259,2.259a4.071,4.071,0,0,0-.6,2.091,4.161,4.161,0,0,0,4.156,4.156,4.071,4.071,0,0,0,2.091-.6l2.259,2.259A7.256,7.256,0,0,1,12.468,19.741Z" transform="translate(0 0)" fill="#95989a"/>
        <path id="Path_3602" data-name="Path 3602" d="M246.208,171.068a.52.52,0,0,0,.112.569l3.592,3.592a.519.519,0,0,0,.887-.373,4.127,4.127,0,0,0-4.105-4.105A.567.567,0,0,0,246.208,171.068Z" transform="translate(-234.178 -162.434)" fill="#95989a"/>
        <path id="Path_3603" data-name="Path 3603" d="M156.818,66.691a.52.52,0,0,0,.592.1,7.2,7.2,0,0,1,3.129-.716,7.281,7.281,0,0,1,7.273,7.273,7.2,7.2,0,0,1-.716,3.129.52.52,0,0,0,.1.592l1.8,1.8a.519.519,0,0,0,.367.152h0a.522.522,0,0,0,.368-.154,13.539,13.539,0,0,0,3.247-5.36.522.522,0,0,0,0-.318A13.092,13.092,0,0,0,160.539,64a12.938,12.938,0,0,0-4.55.824.519.519,0,0,0-.185.854Z" transform="translate(-148.071 -60.882)" fill="#95989a"/>
      </g>
    </g>
  </g>
</svg>
