<svg xmlns="http://www.w3.org/2000/svg" width="210" height="88.697" viewBox="0 0 210 88.697">
  <path id="Exclusion_1" data-name="Exclusion 1" d="M210,80H0L23.789,40.711,0,0H194.776V-8.7L210,0V80ZM113.316,29.371a14.022,14.022,0,0,0-10.2,3.744A13,13,0,0,0,99.289,42.8c0,3.92,1.18,7.039,3.507,9.273s5.552,3.366,9.589,3.366a18.218,18.218,0,0,0,9.176-2.127V40.639H110.838v4.535h5.045V50.1a7.535,7.535,0,0,1-3.235.58,7.059,7.059,0,0,1-5.387-2.127,8.488,8.488,0,0,1-2-6.012,8.46,8.46,0,0,1,2.224-6.125,7.694,7.694,0,0,1,5.756-2.294,14.112,14.112,0,0,1,7.137,1.688V30.478A20.818,20.818,0,0,0,113.316,29.371Zm18.826,15.363h10.442V55h5.7V29.793h-5.7V39.847H132.143V29.793h-5.678V55h5.678V44.735ZM89.463,29.793V55h5.678V29.793ZM67.56,44.734H78V55h5.7V29.793H78V39.847H67.56V29.793H61.883V55H67.56V44.735Z" transform="translate(0 8.697)" fill="#ff6565"/>
</svg>
