<svg xmlns="http://www.w3.org/2000/svg" width="14.883" height="23.658" viewBox="0 0 14.883 23.658">
  <g id="locked-padlock-and-key" transform="translate(-8.716)">
    <g id="Group_287" data-name="Group 287" transform="translate(8.716)">
      <path id="Path_3599" data-name="Path 3599" d="M21.242,8.752V5.087a5.085,5.085,0,1,0-10.17,0V8.751H8.716V21.818h3.353a3.008,3.008,0,0,1-.021-.352,3.35,3.35,0,0,1,2.331-3.073v-1.2a1.875,1.875,0,0,1-1.474-1.879,1.777,1.777,0,0,1,1.159-3.125h.416a1.778,1.778,0,0,1,3.456.591v5.612a3.351,3.351,0,0,1,2.331,3.073,3,3,0,0,1-.021.352H23.6V8.752Zm-2.547,0H13.616V5.087a2.539,2.539,0,1,1,5.079,0Z" transform="translate(-8.716)" fill="#95989a"/>
      <path id="Path_3600" data-name="Path 3600" d="M21.2,31.368a.254.254,0,0,0,.01-.042v-6.5a.571.571,0,1,0-1.143,0v.617H18.542a.571.571,0,1,0,0,1.142h.619a.762.762,0,0,0,0,1.476h.9v3.264c0,.016.008.028.009.041a2.426,2.426,0,0,0-2.339,2.147c0,1.227,1.274,2.189,2.9,2.189s2.9-.962,2.9-2.189A2.425,2.425,0,0,0,21.2,31.368Zm-.562,3.192c-1.037,0-1.76-.552-1.76-1.045s.723-1.045,1.76-1.045,1.761.551,1.761,1.045S21.673,34.56,20.636,34.56Z" transform="translate(-13.195 -12.048)" fill="#95989a"/>
    </g>
  </g>
</svg>
