<svg xmlns="http://www.w3.org/2000/svg" width="210" height="88.697" viewBox="0 0 210 88.697">
  <path id="Exclusion_2" data-name="Exclusion 2" d="M211,79.7H1L24.789,40.407,1-.3H195.776V-9L211-.3v80ZM97.448,26.371a12.042,12.042,0,0,0-9.176,3.692,13.617,13.617,0,0,0-3.462,9.668,12.709,12.709,0,0,0,3.41,9.184,11.783,11.783,0,0,0,8.825,3.524,11.9,11.9,0,0,0,9.008-3.639,13.4,13.4,0,0,0,3.454-9.58,13.085,13.085,0,0,0-3.331-9.317A11.489,11.489,0,0,0,97.448,26.371ZM129.053,33h.07a13.553,13.553,0,0,0,.4,2.83L133.711,52H140l6.662-25.207h-5.73l-3.48,16.822a18.273,18.273,0,0,0-.369,2.813h-.07a20.518,20.518,0,0,0-.4-2.706l-4.13-16.928H126.4l-4.57,16.717a14,14,0,0,0-.51,2.953h-.105a20.151,20.151,0,0,0-.334-2.883l-3.55-16.787h-6.205L117.75,52h6.557L128.6,35.828a17.265,17.265,0,0,0,.457-2.83Zm-60.17-6.2V52H83.894V47.395H74.561v-20.6ZM97.149,47.535a5.655,5.655,0,0,1-4.605-2.18,9.211,9.211,0,0,1-1.759-5.924A9.382,9.382,0,0,1,92.543,33.5a5.739,5.739,0,0,1,4.746-2.241,5.466,5.466,0,0,1,4.57,2.18,9.872,9.872,0,0,1,1.67,6.1,9.108,9.108,0,0,1-1.723,5.88A5.712,5.712,0,0,1,97.149,47.535Z" transform="translate(-1 9)" fill="#48d7a4"/>
</svg>
