<svg xmlns="http://www.w3.org/2000/svg" width="210" height="88.697" viewBox="0 0 210 88.697">
  <path id="Exclusion_1" data-name="Exclusion 1" d="M211,79.7H1L24.789,40.407,1-.3H195.776V-9L211-.3v80Zm-78.851-52.9h0V41.348c0,3.68.863,6.479,2.566,8.319s4.293,2.773,7.7,2.773c3.511,0,6.181-.955,7.936-2.839S153,44.851,153,41.084V26.793h-5.678V41.629a7.066,7.066,0,0,1-1.173,4.43,4.242,4.242,0,0,1-3.52,1.477,4.288,4.288,0,0,1-3.585-1.529,7.407,7.407,0,0,1-1.2-4.588V26.793h-5.7Zm49.517,4.729h.14c-.139,1.954-.211,3.77-.211,5.4V52H187.2V26.793h-8.1L173.949,41.7a36.283,36.283,0,0,0-1,3.639h-.106a21.081,21.081,0,0,0-.9-3.6L166.8,26.793H158.48V52H163.6V38.06c0-1.862-.077-4.062-.229-6.539h.158a32.61,32.61,0,0,0,.791,3.515L170.328,52h4.641l5.906-17.139a26.485,26.485,0,0,0,.791-3.339Zm-60.627-4.729V52h5.677V26.793Zm-26.543,0V52h8.93a13.574,13.574,0,0,0,9.764-3.515,12.481,12.481,0,0,0,3.665-9.4c0-4.076-1.13-7.177-3.357-9.215s-5.616-3.072-10.072-3.072Zm-19.16,0V52H90.453V47.395H81.014V41.629h8.244V37.023H81.014V31.416h8.86V26.793ZM64.068,31.522h.14c-.139,1.955-.211,3.77-.211,5.4V52h5.607V26.793H61.5L56.352,41.7a36.273,36.273,0,0,0-1,3.639h-.106a21.079,21.079,0,0,0-.9-3.6L49.2,26.793H40.883V52H46V38.06c0-1.862-.077-4.061-.229-6.539h.158a32.838,32.838,0,0,0,.791,3.515L52.73,52h4.641l5.906-17.139a26.486,26.486,0,0,0,.791-3.339Zm38.918,15.873h-2.812V31.416h2.777a7.976,7.976,0,0,1,5.845,2.066,7.656,7.656,0,0,1,2.084,5.668,8.442,8.442,0,0,1-2.1,6.03A7.635,7.635,0,0,1,102.986,47.395Z" transform="translate(-1 9)" fill="#ff9500"/>
</svg>
