<svg xmlns="http://www.w3.org/2000/svg" viewBox="0 0 38.98 38.98"><defs><style>.cls-1{fill:#ff5722;}</style></defs><title>meetingNotes</title><g id="Layer_2" data-name="Layer 2"><g id="Layer_1-2" data-name="Layer 1"><g id="meetingNotes"><path id="Path_3965" data-name="Path 3965" class="cls-1" d="M13,10.59a.59.59,0,0,0-.83,0l0,0L9.8,13l-.6-.61a.6.6,0,0,0-.86.85l1,1a.67.67,0,0,0,.42.18.57.57,0,0,0,.43-.18l2.8-2.8A.64.64,0,0,0,13,10.59Z"/><path id="Path_3966" data-name="Path 3966" class="cls-1" d="M12.18,16.07,9.8,18.45l-.6-.61a.62.62,0,0,0-.86,0,.61.61,0,0,0,0,.85l1,1a.67.67,0,0,0,.42.18.57.57,0,0,0,.43-.18l2.8-2.8a.6.6,0,0,0,0-.86A.61.61,0,0,0,12.18,16.07Z"/><g id="Group_397" data-name="Group 397"><path id="Path_3968" data-name="Path 3968" class="cls-1" d="M27.41,20.71a.61.61,0,1,0,0,1.21h3.65v8.71l-5.3,2.13-6.09-6.69-4,2a2.75,2.75,0,0,1-2.07.12L12.79,28a.3.3,0,0,1-.18-.24.25.25,0,0,1,.12-.24l5.18-3.78a.42.42,0,0,0,.24-.12.06.06,0,0,1,.06-.06h0l2.2-1.58h8a.62.62,0,0,0,.61-.62.6.6,0,0,0-.61-.6H19.91l-2.19,1.58-1.64-1.58H0v11H7.22a.61.61,0,0,0,.61-.61.61.61,0,0,0-.61-.61h-6V21.92H7.31v8.53H6.09a.61.61,0,0,0,0,1.22H7.73l8.35,6.58a2.16,2.16,0,0,0,1.46.54,1.93,1.93,0,0,0,.85-.17,5.16,5.16,0,0,0,.61-.43l.67.67c.06.06.06.06.12.06l.06.06h.25a.5.5,0,0,0,.24-.06.06.06,0,0,0,.06-.06h0c.06,0,.06-.06.12-.06L25.94,34l5.91-2.37H39V20.71ZM17.84,37.45a1.06,1.06,0,0,1-1-.17L8.53,30.76V21.93h7.06l1.1,1.1L12,26.5A1.64,1.64,0,0,0,11.39,28a1.51,1.51,0,0,0,1,1.22l.73.24a4.09,4.09,0,0,0,3-.24l3.23-1.59,5.36,5.91-.8.61-5.29-5.3a.61.61,0,0,0-.86,0,.6.6,0,0,0,0,.84l5.24,5.24-1,.92-5.18-5.18a.61.61,0,0,0-.85,0,.59.59,0,0,0,0,.85l5.11,5.12-1,.91L15,32.47a.59.59,0,0,0-.85,0,.61.61,0,0,0,0,.85l4,4C18,37.33,18,37.39,17.84,37.45Zm19.92-7H32.28V21.92h5.48Z"/></g><path id="Path_3969" data-name="Path 3969" class="cls-1" d="M13.4,6.7a.57.57,0,0,0-.54-.61h-.68a.61.61,0,0,0-.61.61.61.61,0,0,0,.61.61h.61a.57.57,0,0,0,.61-.54Z"/><path id="Path_3970" data-name="Path 3970" class="cls-1" d="M14.62,7.31h.61a.61.61,0,0,0,.6-.61.6.6,0,0,0-.6-.61h-.61a.61.61,0,0,0,0,1.22Z"/><path id="Path_3971" data-name="Path 3971" class="cls-1" d="M9.74,7.31h.61A.61.61,0,0,0,11,6.7a.61.61,0,0,0-.61-.61H9.74a.61.61,0,0,0,0,1.22Z"/><path id="Path_3972" data-name="Path 3972" class="cls-1" d="M33.5,19.49a.6.6,0,0,0,.6-.61V6.7a.57.57,0,0,0-.17-.43L27.83.18A.53.53,0,0,0,27.41,0H5.48a.61.61,0,0,0-.61.61V19.49a.57.57,0,0,0,.54.61h.07a.61.61,0,0,0,.61-.61V1.22H26.8V6.7a.57.57,0,0,0,.54.61h5.55V18.88a.57.57,0,0,0,.54.61ZM28,2.13l4,4H28Z"/><path id="Path_3973" data-name="Path 3973" class="cls-1" d="M18.27,4.26a.58.58,0,0,0-.54-.61h-8a.61.61,0,0,0-.6.61.6.6,0,0,0,.6.61h7.92a.57.57,0,0,0,.61-.54Z"/><path id="Path_3974" data-name="Path 3974" class="cls-1" d="M24.36,14.62a.61.61,0,0,0,0-1.22h-.61a.61.61,0,0,0-.61.61.61.61,0,0,0,.61.61h.61Z"/><path id="Path_3975" data-name="Path 3975" class="cls-1" d="M26.8,14.62a.61.61,0,0,0,0-1.22h-.61a.61.61,0,0,0,0,1.22h.62Z"/><path id="Path_3976" data-name="Path 3976" class="cls-1" d="M21.92,14.62a.61.61,0,0,0,0-1.22h-.62a.61.61,0,0,0,0,1.22h.61Z"/><path id="Path_3977" data-name="Path 3977" class="cls-1" d="M29.23,11H16.44a.61.61,0,0,0-.6.61.6.6,0,0,0,.6.61H29.23a.61.61,0,0,0,.61-.61A.61.61,0,0,0,29.23,11Z"/><path id="Path_3978" data-name="Path 3978" class="cls-1" d="M16.44,14.62h3a.61.61,0,0,0,0-1.22h-3a.61.61,0,0,0,0,1.22h0Z"/><path id="Path_3979" data-name="Path 3979" class="cls-1" d="M29.84,17.66a.57.57,0,0,0-.54-.61H16.44a.61.61,0,0,0-.6.61.6.6,0,0,0,.6.61H29.23a.57.57,0,0,0,.61-.54Z"/></g></g></g></svg>