<svg xmlns="http://www.w3.org/2000/svg" width="40.215" height="34.502" viewBox="0 0 40.215 34.502">
  <g id="projects1" transform="translate(-596.316 -572.344)">
    <g id="File-Setting_icon" data-name="File-Setting icon" transform="translate(596.316 572.344)">
      <path id="Subtraction_2" data-name="Subtraction 2" d="M30.916,30.772H3.128a1.591,1.591,0,0,1-1.359-.808,2.151,2.151,0,0,1-.082-2.084l5.032-9.949a4.387,4.387,0,0,1,3.841-2.544H38.347a1.591,1.591,0,0,1,1.359.808,2.151,2.151,0,0,1,.082,2.084L35.5,26.762l-.635-.935c-.239.066-.456.129-.665.189a11.191,11.191,0,0,1-2.813.534c-.026,0-.112.905-.2,1.862C31.071,29.573,30.958,30.772,30.916,30.772ZM0,26.124H0V3.847A3.622,3.622,0,0,1,3.335,0H14.45L18.9,5.129H30.013a3.622,3.622,0,0,1,3.334,3.846v3.847H10.561A6.583,6.583,0,0,0,4.8,16.638ZM4.652,2.685a1.282,1.282,0,1,0,0,2.564h7.232a1.282,1.282,0,0,0,0-2.564Z" transform="translate(0 0)" fill="#ff2d55"/>
    </g>
    <g id="Group_361" data-name="Group 361" transform="translate(621.027 591.342)">
      <path id="plus-circle" d="M15.752,8A7.752,7.752,0,1,0,23.5,15.752,7.751,7.751,0,0,0,15.752,8Z" transform="translate(-8 -8)" fill="#ff2d55"/>
      <path id="plus-circle-2" data-name="plus-circle" d="M14.15,8a6.15,6.15,0,1,0,6.15,6.15A6.149,6.149,0,0,0,14.15,8Zm3.571,6.845a.3.3,0,0,1-.3.3H15.142v2.282a.3.3,0,0,1-.3.3H13.456a.3.3,0,0,1-.3-.3V15.142H10.877a.3.3,0,0,1-.3-.3V13.456a.3.3,0,0,1,.3-.3h2.282V10.877a.3.3,0,0,1,.3-.3h1.389a.3.3,0,0,1,.3.3v2.282h2.282a.3.3,0,0,1,.3.3Z" transform="translate(-6.398 -6.398)" fill="#fff"/>
    </g>
  </g>
</svg>
