<svg xmlns="http://www.w3.org/2000/svg" width="47.31" height="37.522" viewBox="0 0 47.31 37.522">
  <g id="resource" transform="translate(-431.221 -562.229)">
    <path id="users" d="M6.834,46.375a4.8,4.8,0,0,0,0-9.583,4.8,4.8,0,0,0,0,9.583Zm31.891,0a4.8,4.8,0,1,0-4.556-4.792A4.683,4.683,0,0,0,38.724,46.375ZM41,48.771H36.447a4.432,4.432,0,0,0-3.21,1.393,10.965,10.965,0,0,1,5.346,8.191h4.7a2.337,2.337,0,0,0,2.278-2.4v-2.4A4.683,4.683,0,0,0,41,48.771Zm-18.223,0a8.183,8.183,0,0,0,7.973-8.385A8.183,8.183,0,0,0,22.779,32a8.183,8.183,0,0,0-7.973,8.385A8.183,8.183,0,0,0,22.779,48.771Zm5.467,2.4h-.591a10.523,10.523,0,0,1-9.752,0h-.591a8.423,8.423,0,0,0-8.2,8.625v2.156a3.51,3.51,0,0,0,3.417,3.594h20.5a3.51,3.51,0,0,0,3.417-3.594V59.791A8.423,8.423,0,0,0,28.246,51.166Zm-15.924-1a4.432,4.432,0,0,0-3.21-1.393H4.556A4.683,4.683,0,0,0,0,53.562v2.4a2.337,2.337,0,0,0,2.278,2.4H6.969a10.992,10.992,0,0,1,5.353-8.191Z" transform="translate(431.221 530.229)" fill="#ff9500"/>
    <g id="Group_359" data-name="Group 359" transform="translate(463.027 584.248)">
      <path id="plus-circle" d="M15.752,8A7.752,7.752,0,1,0,23.5,15.752,7.751,7.751,0,0,0,15.752,8Z" transform="translate(-8 -8)" fill="#ff9500"/>
      <path id="plus-circle-2" data-name="plus-circle" d="M14.15,8a6.15,6.15,0,1,0,6.15,6.15A6.149,6.149,0,0,0,14.15,8Zm3.571,6.845a.3.3,0,0,1-.3.3H15.142v2.282a.3.3,0,0,1-.3.3H13.456a.3.3,0,0,1-.3-.3V15.142H10.877a.3.3,0,0,1-.3-.3V13.456a.3.3,0,0,1,.3-.3h2.282V10.877a.3.3,0,0,1,.3-.3h1.389a.3.3,0,0,1,.3.3v2.282h2.282a.3.3,0,0,1,.3.3Z" transform="translate(-6.398 -6.398)" fill="#fff"/>
    </g>
  </g>
</svg>
