<svg xmlns="http://www.w3.org/2000/svg" viewBox="0 0 41.01 40.99"><defs><style>.cls-1{fill:none;stroke:#673ab7;}.cls-2{fill:#683bb7;}</style></defs><title>risk1</title><g id="Layer_2" data-name="Layer 2"><g id="Layer_1-2" data-name="Layer 1"><g id="risk1"><path id="circle" class="cls-1" d="M20.51.5a20,20,0,1,0,20,20h0a20,20,0,0,0-20-20Z"/><path id="bolt" class="cls-2" d="M27.71,17H22.3l2-6.08a1.13,1.13,0,0,0-.8-1.38,1.45,1.45,0,0,0-.29,0H16.46a1.12,1.12,0,0,0-1.11,1l-1.5,11.25a1.12,1.12,0,0,0,1,1.26h5.72l-2.16,9.11a1.13,1.13,0,0,0,2.07.82l8.24-14.24a1.12,1.12,0,0,0-1-1.69Z"/></g></g></g></svg>