<svg xmlns="http://www.w3.org/2000/svg" viewBox="0 0 32 40"><defs><style>.cls-1{fill:#3f51b5;}</style></defs><title>task (2)</title><g id="Layer_2" data-name="Layer 2"><g id="Layer_1-2" data-name="Layer 1"><g id="task"><g id="Group_371" data-name="Group 371"><g id="Group_370" data-name="Group 370"><path id="Path_3671" data-name="Path 3671" class="cls-1" d="M30.3,26.35V36.83a1.64,1.64,0,0,1-1.7,1.58H3.4a1.64,1.64,0,0,1-1.7-1.58V11.09A1.65,1.65,0,0,1,3.4,9.51H5.8v3.17H26.2V9.51h2.4a1.64,1.64,0,0,1,1.7,1.58V31.9L32,30.31V11.09a3.29,3.29,0,0,0-3.4-3.17H25.9a5,5,0,0,0-3.39-3,2.27,2.27,0,0,1-1.61-1.5A5.21,5.21,0,0,0,14.28.29,5.15,5.15,0,0,0,11.1,3.44a2.27,2.27,0,0,1-1.62,1.5,5,5,0,0,0-3.39,3H3.4A3.29,3.29,0,0,0,0,11.1V36.83A3.29,3.29,0,0,0,3.4,40H28.6A3.29,3.29,0,0,0,32,36.83V24.77ZM7.5,9.48a3.25,3.25,0,0,1,2.45-3,3.91,3.91,0,0,0,2.78-2.58,3.46,3.46,0,0,1,4.41-2.1,3.42,3.42,0,0,1,2.13,2.1A3.91,3.91,0,0,0,22,6.46,3.22,3.22,0,0,1,24.5,9.51v1.58H7.5Z"/></g></g><g id="Group_373" data-name="Group 373"><g id="Group_372" data-name="Group 372"><ellipse id="Ellipse_28" data-name="Ellipse 28" class="cls-1" cx="16.02" cy="8.01" rx="1.27" ry="1.26"/></g></g><g id="Group_396" data-name="Group 396"><g id="Group_363" data-name="Group 363"><g id="Group_362" data-name="Group 362"><rect id="Rectangle_676" data-name="Rectangle 676" class="cls-1" x="5.8" y="18.18" width="20.4" height="1.68"/></g></g><g id="Group_374" data-name="Group 374"><g id="Group_362-2" data-name="Group 362-2"><rect id="Rectangle_676-2" data-name="Rectangle 676-2" class="cls-1" x="5.8" y="22.86" width="20.4" height="1.68"/></g></g><g id="Group_375" data-name="Group 375"><g id="Group_362-3" data-name="Group 362-3"><rect id="Rectangle_676-3" data-name="Rectangle 676-3" class="cls-1" x="5.8" y="27.53" width="20.4" height="1.68"/></g></g><g id="Group_376" data-name="Group 376"><g id="Group_362-4" data-name="Group 362-4"><rect id="Rectangle_676-4" data-name="Rectangle 676-4" class="cls-1" x="5.8" y="32.2" width="20.4" height="1.68"/></g></g></g></g></g></g></svg>