<svg xmlns="http://www.w3.org/2000/svg" xmlns:xlink="http://www.w3.org/1999/xlink" viewBox="0 0 365.15 116.72"><defs><style>.cls-1{fill:#fff;}.cls-2{fill:url(#Nuovo_campione_sfumatura_1);}.cls-3{fill:url(#Nuovo_campione_sfumatura_1-2);}</style><linearGradient id="Nuovo_campione_sfumatura_1" x1="332.34" y1="55.95" x2="345.29" y2="55.95" gradientUnits="userSpaceOnUse"><stop offset="0" stop-color="#f6a800"/><stop offset="1" stop-color="#e95b2b"/></linearGradient><linearGradient id="Nuovo_campione_sfumatura_1-2" x1="294.05" y1="43.84" x2="365.15" y2="43.84" xlink:href="#Nuovo_campione_sfumatura_1"/></defs><title>Tri-Logo</title><g id="Layer_2" data-name="Layer 2"><g id="Livello_1" data-name="Livello 1"><path class="cls-1" d="M62.69,1.1H0V7.27H27.76V76.51h7.17V7.27H62.69V1.1Z"/><path class="cls-1" d="M90,1.1H70.35V76.51h7.12V41h9.31c4.46,0,7.87.8,10.14,2.39s5.64,5.82,9.87,12.49l12.9,20.29.2.32h8.45l-.7-1.08L110.89,49.84c-3.57-5.5-6.49-9.05-8.86-10.76,8.77-3.64,13.22-9.74,13.22-18.15,0-6.06-2.21-10.94-6.56-14.5S98.09,1.1,90,1.1ZM77.47,7.27H88.85c6.1,0,10.83,1.24,14,3.67A11.85,11.85,0,0,1,107.65,21c0,4.44-1.53,7.77-4.68,10.17s-7.84,3.65-13.91,3.65H77.47V7.27Z"/><path class="cls-1" d="M140.56,1.1h-7.12V76.51h7.12V1.1Z"/><path class="cls-1" d="M186.46.57h-4l-.19.41L148,75.52l-.45,1h7.54l.19-.41,11.48-25.18h35.29L213.59,76.1l.19.41h7.54l-.46-1L186.65,1l-.19-.41ZM169.59,44.76l14.8-32.48,14.86,32.48Z"/><path class="cls-1" d="M248.15,1.1H228.48V76.51h7.12V41h9.31c4.46,0,7.87.8,10.14,2.39s5.64,5.82,9.87,12.49l12.89,20.29.21.32h8.45l-.71-1.08L269,49.84c-3.57-5.5-6.49-9.05-8.86-10.76,8.77-3.64,13.22-9.74,13.22-18.15,0-6.06-2.21-10.94-6.57-14.5S256.22,1.1,248.15,1.1ZM235.6,7.27H247c6.1,0,10.83,1.24,14,3.67A11.85,11.85,0,0,1,265.78,21c0,4.44-1.53,7.77-4.68,10.17s-7.84,3.65-13.91,3.65H235.6V7.27Z"/><path class="cls-2" d="M343.39,51.37a6.48,6.48,0,1,1-9.15,0A6.49,6.49,0,0,1,343.39,51.37Z"/><path class="cls-3" d="M351.67,64a40.62,40.62,0,0,0,8.59-24.23A33.94,33.94,0,0,0,350,14.2a38.6,38.6,0,0,0-4.86-4.12,36.45,36.45,0,1,1-51,52,38.68,38.68,0,0,0,3.7,4.28,34,34,0,0,0,24.92,10.36h.57c8.86-.13,16.65-3.08,22.38-8.85l9.69,9.7,9.84-.17Z"/><path class="cls-1" d="M298.47,15A36.3,36.3,0,0,1,324.38,3.84h.67a33.76,33.76,0,0,1,20,6.24,36.45,36.45,0,0,0-51,52,33.82,33.82,0,0,1-6.69-21.25A36.06,36.06,0,0,1,298.47,15Z"/><path class="cls-1" d="M86.21,116.72H83.93v-8.4l.24-.24H72.29l.24.24v8.4H70.25V97.28h2.28v8.4l-.24.24H84.17l-.24-.24v-8.4h2.28Zm-2-8.64h0Z"/><path class="cls-1" d="M127.61,116.72H113.33V97.28h14.28v2.16H115.37l.24.24v6l-.24.24h11.09v2.16H115.37l.24.24v6l-.24.24h12.24Z"/><path class="cls-1" d="M172,116.72h-2.5L167.41,112l.12-.24H156.89l.12.24L155,116.72h-2.5L161,97.28h2.42Zm-5.48-7.08-.24-.24-3.43-7.8-.57-1.94h-.05l-.6,1.94-3.43,7.8-.24.24Z"/><path class="cls-1" d="M210.44,116.72H197.28V97.28h2.28v17l-.24.26h11.12Z"/><path class="cls-1" d="M247.88,99.44H240.8l.12.24v17h-2.28v-17l.12-.24h-7.08V97.28h16.2Z"/><path class="cls-1" d="M289.28,116.72H287v-8.4l.24-.24H275.36l.24.24v8.4h-2.28V97.28h2.28v8.4l-.24.24h11.88l-.24-.24v-8.4h2.28Zm-2-8.64h0Z"/></g></g></svg>