<svg xmlns="http://www.w3.org/2000/svg" xmlns:xlink="http://www.w3.org/1999/xlink" viewBox="0 0 421.15 59.07"><defs><style>.cls-1,.cls-4{fill:#fff;}.cls-2{fill:url(#linear-gradient);}.cls-3{fill:url(#linear-gradient-2);}.cls-4{font-size:40px;font-family:MyriadPro-Regular, Myriad Pro;}</style>
<linearGradient id="linear-gradient" x1="266.16" y1="42.52" x2="256.41" y2="42.52" gradientUnits="userSpaceOnUse"><stop offset="0" stop-color="#e66028"/><stop offset="1" stop-color="#f3a51e"/></linearGradient>
<linearGradient id="linear-gradient-2" x1="281.26" y1="33.38" x2="227.52" y2="33.38" xlink:href="#linear-gradient"/></defs><title>triarqLogoBANQ</title><g id="Layer_2" data-name="Layer 2"><g id="Layer_1-2" data-name="Layer 1"><g id="svg"><g id="Livello_1" data-name="Livello 1">
<path class="cls-1" d="M48.55.66H0V5.44H21.5V59.07h5.55V5.44h21.5Z"/>
<path class="cls-1" d="M69.71.66H54.49V59.07H60V31.56h7.21c3.46,0,6.1.62,7.86,1.85s4.37,4.51,7.64,9.68l10,15.71.16.25H99.4l-.54-.84-13-19.8c-2.77-4.26-5-7-6.87-8.33,6.8-2.82,10.24-7.55,10.24-14.06A13.79,13.79,0,0,0,84.18,4.79C80.81,2,76,.66,69.71.66ZM60,5.44h8.82c4.72,0,8.38,1,10.84,2.84a9.2,9.2,0,0,1,3.72,7.79A9.25,9.25,0,0,1,79.75,24c-2.44,1.86-6.07,2.83-10.77,2.83H60Z"/>
<path class="cls-1" d="M108.87.66h-5.52V59.07h5.52Z"/>
<path class="cls-1" d="M144.42.25h-3.1l-.15.32L114.63,58.3l-.35.77h5.84l.15-.31,8.89-19.51h27.33l8.94,19.5.15.32h5.84l-.36-.78L144.56.58l-.14-.32ZM131.35,34.47,142.81,9.32l11.51,25.15Z"/>
<path class="cls-1" d="M192.2.66H177V59.07h5.52V31.56h7.21c3.45,0,6.09.62,7.85,1.85s4.37,4.51,7.65,9.68l10,15.71.16.25h6.55l-.55-.84-13-19.8c-2.77-4.26-5-7-6.87-8.33,6.8-2.82,10.24-7.55,10.24-14.06a13.77,13.77,0,0,0-5.09-11.23Q201.58.65,192.2.66Zm-9.72,4.78h8.83c4.72,0,8.39,1,10.84,2.84a9.18,9.18,0,0,1,3.7,7.79A9.24,9.24,0,0,1,202.23,24c-2.44,1.86-6.07,2.83-10.78,2.83h-9Z"/></g></g>
<rect class="cls-1" x="296.86" y="2.8" width="3" height="54.13"/><circle class="cls-2" cx="261.28" cy="42.52" r="4.88"/>
<path class="cls-3" d="M281.26,58.74,271,48.56a31,31,0,0,0,6.55-18.51A26.52,26.52,0,0,0,266,7.88a27.58,27.58,0,1,1-38.51,39.48,26.69,26.69,0,0,0,22.07,10.85c6.1-.2,11.85-1.79,16.85-6.66l1.05,1.06h0l6.27,6.26Z"/>
<path class="cls-1" d="M231.05,11.11a30.49,30.49,0,0,1,20.06-8l.93,0c5.54-.07,10,2.1,14.57,5.32-12.22-12-29.81-10.8-40.25.78a27.71,27.71,0,0,0,1.26,38.33,26.22,26.22,0,0,1-5.18-16.46A27.9,27.9,0,0,1,231.05,11.11Z"/>
<text class="cls-4" transform="translate(312.63 43.01)">BANQ </text></g></g></svg>