<svg xmlns="http://www.w3.org/2000/svg" width="45.558" height="33.541" viewBox="0 0 45.558 33.541">
  <path id="users" d="M6.834,46.375a4.8,4.8,0,0,0,0-9.583,4.8,4.8,0,0,0,0,9.583Zm31.891,0a4.8,4.8,0,1,0-4.556-4.792A4.683,4.683,0,0,0,38.724,46.375ZM41,48.771H36.447a4.432,4.432,0,0,0-3.21,1.393,10.965,10.965,0,0,1,5.346,8.191h4.7a2.337,2.337,0,0,0,2.278-2.4v-2.4A4.683,4.683,0,0,0,41,48.771Zm-18.223,0a8.183,8.183,0,0,0,7.973-8.385A8.183,8.183,0,0,0,22.779,32a8.183,8.183,0,0,0-7.973,8.385A8.183,8.183,0,0,0,22.779,48.771Zm5.467,2.4h-.591a10.523,10.523,0,0,1-9.752,0h-.591a8.423,8.423,0,0,0-8.2,8.625v2.156a3.51,3.51,0,0,0,3.417,3.594h20.5a3.51,3.51,0,0,0,3.417-3.594V59.791A8.423,8.423,0,0,0,28.246,51.166Zm-15.924-1a4.432,4.432,0,0,0-3.21-1.393H4.556A4.683,4.683,0,0,0,0,53.562v2.4a2.337,2.337,0,0,0,2.278,2.4H6.969a10.992,10.992,0,0,1,5.353-8.191Z" transform="translate(0 -32)" fill="#fff"/>
</svg>
