<svg xmlns="http://www.w3.org/2000/svg" width="68" height="68" viewBox="0 0 68 68">
  <g id="Ring_Chart3" data-name="Ring Chart3" transform="translate(41.001 40.997)">
    <path id="Path_3587" data-name="Path 3587" d="M.459-41A34.106,34.106,0,0,1,33.715-12.875,33.973,33.973,0,0,1,12.053,24.833L9.5,17.815a26.515,26.515,0,0,0,16.829-29.4A26.619,26.619,0,0,0,.459-33.534Z" transform="translate(-7.232 0)" fill="#feb407"/>
    <path id="Path_3588" data-name="Path 3588" d="M4.409,25.1a34.256,34.256,0,0,1-36.216-8.892A33.886,33.886,0,0,1-38.249-20.37,34.154,34.154,0,0,1-7.23-41v7.464A26.656,26.656,0,0,0-31.367-17.409a26.448,26.448,0,0,0,5.019,28.5A26.736,26.736,0,0,0,1.859,18.082Z" transform="translate(0 0)" fill="#ffecbf"/>
    <text id="_40_" data-name="40%" transform="translate(-6.83 -0.715)" font-size="20" font-family="SourceSansPro-Semibold, Source Sans Pro" font-weight="600"><tspan x="-18.67" y="0">40%</tspan></text>
  </g>
</svg>
